<svg xmlns="http://www.w3.org/2000/svg" enable-background="new 0 0 512 512" viewBox="0 0 512 512"><path fill="#f7c94b" d="M452.886,92.666v408.436c0,5.991-4.902,10.893-10.893,10.893H150.766V92.666H452.886z"/><rect width="32.679" height="419.329" x="118.087" y="92.666" fill="#b0bfc6"/><path fill="#c9d2d7" d="M118.081,92.641h-12.655c-25.133,0-45.554-19.955-46.252-44.914h-0.059v417.957c0,25.599,20.712,46.311,46.31,46.311h12.655V92.641z"/><path fill="#fff" d="M452.79,92.542l0.055,0.109H105.41c-12.799,0-24.346-5.174-32.733-13.562C64.289,70.701,59.114,59.1,59.114,46.301c0-25.544,20.751-46.296,46.296-46.296h347.435l-0.055,0.054c-7.734,4.902-13.671,11.22-17.865,18.409v0.055c-1.961,3.268-3.486,6.699-4.684,10.24c-1.307,3.922-2.178,8.007-2.56,12.091c-0.327,3.595-0.327,7.298,0,10.893c0.381,4.139,1.253,8.17,2.56,12.146c1.198,3.54,2.778,7.026,4.684,10.294C439.12,81.322,445.111,87.64,452.79,92.542z"/><path fill="#d1dfe8" d="M452.79,92.542l0.055,0.109H105.41c-12.799,0-24.346-5.174-32.733-13.562C64.289,70.701,59.114,59.1,59.114,46.301c0-25.544,20.751-46.296,46.296-46.296h347.435l-0.055,0.054c-7.734,4.902-13.671,11.22-17.865,18.409v0.055c-1.961,3.268-3.486,6.699-4.684,10.24c-1.307,3.922-2.178,8.007-2.56,12.091c-0.327,3.595-0.327,7.298,0,10.893c0.381,4.139,1.253,8.17,2.56,12.146c1.198,3.54,2.778,7.026,4.684,10.294C439.12,81.322,445.111,87.64,452.79,92.542z"/><path fill="#e2887d" d="M387.69 271.534c0 45.289-67.255 96.074-82.709 107.145-1.895 1.357-4.384 1.358-6.279.001-15.458-11.07-82.74-61.856-82.74-107.146 0-26.374 21.385-47.759 47.759-47.759 15.558 0 29.381 7.438 38.121 18.967 8.709-11.529 22.531-18.967 38.089-18.967C366.305 223.775 387.69 245.16 387.69 271.534zM230.798 92.666v78.236c0 2.336-2.747 3.588-4.51 2.055l-18.661-16.222-18.661 16.222c-1.763 1.532-4.51.28-4.51-2.055V92.666H230.798z"/><path fill="#b0bfc6" d="M427.682 51.747H107.589c-3.05 0-5.447-2.396-5.447-5.447 0-2.996 2.396-5.447 5.447-5.447h320.093C427.355 44.449 427.355 48.152 427.682 51.747zM434.926 74.187c-.762.381-1.579.599-2.451.599H153.884c-3.05 0-5.447-2.396-5.447-5.447 0-2.996 2.396-5.447 5.447-5.447h276.357C431.44 67.433 433.019 70.919 434.926 74.187zM434.926 18.469v.055c-1.961 3.268-3.486 6.699-4.684 10.24H153.884c-3.05 0-5.447-2.396-5.447-5.447 0-2.996 2.396-5.447 5.447-5.447H432.42C433.346 17.87 434.163 18.087 434.926 18.469z"/></svg>